<?xml version="1.0" encoding="utf-8"?><svg xmlns="http://www.w3.org/2000/svg" xmlns:xlink="http://www.w3.org/1999/xlink" width="132" height="58.803" viewBox="0 0 132 58.803"><defs><clipPath id="a"><rect width="132" height="58.803" fill="#fff"/></clipPath></defs><g clip-path="url(#a)"><path d="M502.313,21.375a37.38,37.38,0,0,1,2.669-4.865A35.977,35.977,0,0,1,527.206.924a32.024,32.024,0,0,1,6.036-.853c.573-.027,1.145-.081,1.719-.07.391.007.4.013.4.409.005,1.315,0,2.63,0,3.946q0,1.889,0,3.779c0,.5-.006.494-.477.5a27.594,27.594,0,0,0-26.654,22.607c-.23,1.222-.314,2.458-.43,3.692a10.328,10.328,0,0,1-.189-1.644A22.408,22.408,0,0,0,503.269,22.6a6.95,6.95,0,0,0-.92-1.1l-.035-.122" transform="translate(-403.366 0)" fill="#0091da"/><path d="M432.359,76.663l.035.123a1.875,1.875,0,0,0-.428.828,34.758,34.758,0,0,0-2.685,12.152.589.589,0,0,1-.09.423,17.547,17.547,0,0,0-.673-3.084,13.871,13.871,0,0,0-11.136-9.465,8.26,8.26,0,0,0-1.656-.151c-.568.008-.527-.008-.527-.565q0-1.528,0-3.055,0-2.25,0-4.5c0-.516,0-.529.514-.517a22.6,22.6,0,0,1,16.337,7.492c.1.109.2.213.308.319" transform="translate(-333.413 -55.288)" fill="#ffcd00"/><path d="M509.619,191.739a1.391,1.391,0,0,0,.065-.618q0-3.474,0-6.947c0-.13,0-.259,0-.389-.007-.177.048-.277.249-.275.741.006,1.482,0,2.223,0,.161,0,.235.078.228.24-.005.13,0,.259,0,.389q0,10.5,0,21.008c0,.67.1.623-.622.625-.556,0-1.112,0-1.667,0-.4,0-.4-.008-.408-.39-.006-.408,0-.815,0-1.223a.3.3,0,0,0-.084-.276,1.482,1.482,0,0,0-.461.348,7.787,7.787,0,0,1-3.8,1.821,8.309,8.309,0,0,1-8.655-4.317,8.418,8.418,0,0,1,5.1-12.084,7.514,7.514,0,0,1,7.641,1.9l.2.189m-5.506.237a5.811,5.811,0,0,0,.076,11.619,5.811,5.811,0,0,0-.076-11.619" transform="translate(-398.056 -147.362)" fill="#fff"/><path d="M10.6,182.79c.682,1.27,10.28,21.868,10.437,22.407-.583,0-1.15.01-1.717,0-.422-.01-.905.151-1.248-.076-.32-.212-.392-.692-.567-1.056-.825-1.716-1.652-3.43-2.457-5.155a.769.769,0,0,0-.82-.543c-2.445.031-4.89.023-7.335.006a.694.694,0,0,0-.752.467c-.9,1.964-1.848,3.909-2.756,5.871a.722.722,0,0,1-.791.5c-.828-.036-1.659-.011-2.6-.011L10.6,182.79m.008,6.629-2.929,6.2H13.53l-2.919-6.2" transform="translate(0 -146.784)" fill="#fff"/><path d="M241.767,222.081a5.354,5.354,0,0,0,5.056,5.272,5.786,5.786,0,0,0,5.1-2.407c.212-.28.4-.579.585-.877.338-.54.178-.535.768-.234.527.269,1.044.557,1.572.824.19.1.225.187.126.386a8.055,8.055,0,0,1-6.207,4.757,8.53,8.53,0,0,1-5.348-.765,7.928,7.928,0,0,1-4.372-6.116,8.374,8.374,0,0,1,.975-5.686,7.935,7.935,0,0,1,7.3-4.132,7.676,7.676,0,0,1,5.426,2.038,8.6,8.6,0,0,1,2.525,4.776c.117.583.144,1.175.2,1.764.027.263-.055.384-.329.359-.129-.012-.259,0-.389,0q-6.2,0-12.392,0a1.533,1.533,0,0,0-.6.041m10.607-2.519c-.3-2.076-2.569-3.78-5.088-3.835a5.08,5.08,0,0,0-5.174,3.835Z" transform="translate(-191.857 -171.126)" fill="#fff"/><path d="M415.818,215.311c0-.528.009-1.046,0-1.564-.007-.273.063-.4.37-.393.647.02,1.3.018,1.944,0,.279-.007.424.066.392.368a3.224,3.224,0,0,0,0,.333q0,7.333,0,14.666a2.986,2.986,0,0,0,0,.333c.034.3-.117.376-.393.37-.648-.014-1.3-.017-1.944,0-.3.008-.379-.118-.371-.395.016-.5,0-1,0-1.507-.2-.033-.27.118-.368.2a7.66,7.66,0,0,1-4.464,2.043A8.277,8.277,0,0,1,402.624,225a8.4,8.4,0,0,1,4.895-11.58,7.565,7.565,0,0,1,8.058,1.79.219.219,0,0,0,.241.1m-5.465.319a5.808,5.808,0,0,0-.253,11.609,5.807,5.807,0,0,0,.253-11.609" transform="translate(-322.678 -171.008)" fill="#fff"/><path d="M115.936,215.436a12.474,12.474,0,0,1,1.269-1.107,6.947,6.947,0,0,1,5.755-1.11,4.657,4.657,0,0,1,3.21,2.52,9.124,9.124,0,0,1,.9,2.954,23.083,23.083,0,0,1,.22,3.432q0,3.444,0,6.888c0,.454,0,.459-.45.462-.574,0-1.148,0-1.722,0-.674,0-.58-.018-.58-.562q0-3.8,0-7.61a13.471,13.471,0,0,0-.235-2.76,6.1,6.1,0,0,0-.317-1.06,2.764,2.764,0,0,0-2.152-1.8,4.836,4.836,0,0,0-5.2,2.566,6.659,6.659,0,0,0-.678,3.056c-.1,2.517-.046,5.034-.059,7.552,0,.71.044.609-.634.615-.481,0-.963,0-1.444,0-.73,0-.634.047-.634-.611q0-3.3,0-6.61v-8.221c0-.13,0-.259,0-.389,0-.163.079-.229.237-.229.74,0,1.481,0,2.222,0,.2,0,.255.1.254.271,0,.37,0,.741,0,1.111,0,.176.019.352.035.641" transform="translate(-90.888 -171.061)" fill="#fff"/><path d="M486.234,122.539a.589.589,0,0,0,.09-.423,34.757,34.757,0,0,1,2.685-12.152,1.874,1.874,0,0,1,.428-.828,6.944,6.944,0,0,1,.92,1.1,22.408,22.408,0,0,1,4.346,10.694,10.325,10.325,0,0,0,.189,1.644c0,.332-.008.664-.006,1,0,.186-.082.27-.267.263-.111,0-.221,0-.332,0h-7.419c-.111,0-.222-.005-.332,0-.216.011-.293-.1-.291-.3,0-.332-.006-.664-.011-1" transform="translate(-390.455 -87.639)" fill="#93c90f"/><path d="M191.187,189.308a1.107,1.107,0,0,0,.059-.564c0-1.592,0-3.185,0-4.777,0-.449.006-.454.461-.457q.944-.006,1.889,0c.42,0,.427.008.428.429q0,2.277,0,4.555c0,.833,0,.833.862.833h2.9c0,.537.012,1.047,0,1.555-.01.325.15.734-.088.954-.21.194-.6.056-.913.06-.759.009-1.519,0-2.278,0-.477,0-.481,0-.481.48q0,3.972,0,7.944,0,2.472,0,4.944c0,.539.015.506-.522.5-.611,0-1.222,0-1.833,0-.416,0-.423-.01-.424-.437q0-3,0-6,0-3.416,0-6.833c0-.6,0-.6-.627-.6-.759,0-1.519-.012-2.278.006-.283.007-.4-.067-.391-.367.017-.629.019-1.26,0-1.888-.009-.293.122-.33.366-.327.852.011,1.7,0,2.555,0,.108,0,.216-.012.315-.018" transform="translate(-150.928 -147.359)" fill="#fff"/><path d="M340.381,215.836a7.231,7.231,0,0,0-1.892.41,3.757,3.757,0,0,0-2.454,3.281,10.086,10.086,0,0,0-.054,1.108q-.007,4.084,0,8.167c0,.13-.005.259,0,.389.01.205-.065.3-.287.3-.722-.008-1.444-.006-2.167,0-.185,0-.272-.075-.262-.264.007-.129,0-.259,0-.389q0-7.389,0-14.779c0-.7-.081-.624.616-.627.593,0,1.186.009,1.778,0,.244-.006.331.085.322.32a4.344,4.344,0,0,0,.047.881,4.856,4.856,0,0,1,2.07-1.267,7.652,7.652,0,0,1,1.966-.317c.232-.01.326.06.322.309-.013.813,0,1.626,0,2.485" transform="translate(-267.616 -171.075)" fill="#fff"/><path d="M382.125,215.008a1.017,1.017,0,0,1,.073.573q0,7.473,0,14.946c0,.093,0,.185,0,.278.01.184-.066.267-.258.266-.722-.006-1.444-.007-2.167,0-.221,0-.3-.092-.284-.3.008-.111,0-.222,0-.333V215.658c0-.056,0-.111,0-.167.005-.478.005-.481.484-.482.721,0,1.443,0,2.148,0" transform="translate(-304.737 -172.655)" fill="#fff"/><path d="M378.171,186.767a2,2,0,1,1,2-2,1.991,1.991,0,0,1-2,2" transform="translate(-302.081 -146.77)" fill="#fff"/></g></svg>