<svg xmlns="http://www.w3.org/2000/svg" xml:space="preserve" style="enable-background:new 0 0 800 800" viewBox="0 0 800 800"><linearGradient id="a" x1="37.978" x2="763.909" y1="414.195" y2="414.195" gradientUnits="userSpaceOnUse"><stop offset=".001" style="stop-color:#ffcd03"/><stop offset=".51" style="stop-color:#91c73e"/><stop offset="1" style="stop-color:#208fce"/></linearGradient><path d="M42.2 799c-.18-46.2 8.56-91.52 26.05-134.75 18.1-44.73 44.44-84.57 78.32-118.4 32.72-32.68 71.04-58.41 113.91-76.48a361.84 361.84 0 0 1 46.38-15.94 229.02 229.02 0 0 0 15.23 6.81c15.05 6.09 30.5 10.49 46.22 13.21-31.83 3.52-62.93 11.74-92.79 24.61-38.86 16.75-73.66 40.49-103.42 70.56-30.81 31.13-54.85 67.71-71.44 108.73-15.82 39.1-23.95 79.99-24.25 121.65h4.19c.3-41.12 8.33-81.48 23.94-120.07 16.39-40.51 40.12-76.63 70.54-107.36 29.38-29.69 63.73-53.12 102.1-69.66 35.68-15.38 73.17-24.07 111.55-25.88 6.93.55 13.9.79 20.91.69 4.13-.06 8.24-.24 12.33-.53 34.35 1.97 68 9.55 100.33 22.63 40.01 16.19 75.62 39.82 105.83 70.24 29.18 29.39 52.13 63.84 68.21 102.4 16.08 38.57 24.47 79.3 24.95 121.06.02 2.16.01 4.32-.01 6.48h4.19c.02-2.17.03-4.34.01-6.52-.49-42.3-8.99-83.56-25.27-122.62-16.29-39.07-39.54-73.97-69.1-103.74-30.61-30.83-66.69-54.77-107.23-71.17-26.4-10.68-53.67-17.72-81.47-21.11 17.55-2.85 34.72-7.78 51.32-14.78 2.54-1.07 5.04-2.2 7.53-3.35 11.37 3.35 22.62 7.28 33.73 11.77 44.91 18.17 84.94 44.55 118.97 78.42 32.87 32.71 58.78 71 77.03 113.79 18.24 42.79 27.9 87.93 28.69 134.17.03 1.71.02 3.43.02 5.14h4.22c-.01-1.73-.02-3.46-.05-5.2-.8-46.78-10.57-92.44-29.03-135.73-18.46-43.29-44.68-82.02-77.93-115.12-34.43-34.27-74.92-60.96-120.36-79.34-9.82-3.97-19.74-7.48-29.76-10.57 21.56-10.74 41.08-24.75 58.15-41.8 21.18-21.16 37.66-46.06 48.97-74.03s16.79-57.33 16.27-87.26c-.5-28.91-6.53-57.13-17.94-83.89-11.41-26.75-27.61-50.69-48.16-71.15-21.28-21.18-46.3-37.68-74.38-49.04s-57.54-16.9-87.56-16.47c-28.99.41-57.28 6.35-84.08 17.65-26.8 11.3-50.76 27.39-71.22 47.82-21.18 21.15-37.66 46.06-48.97 74.03s-16.79 57.33-16.27 87.26c.5 28.91 6.53 57.13 17.94 83.89 11.41 26.75 27.61 50.69 48.16 71.15 15.88 15.81 33.85 29 53.62 39.4a365.393 365.393 0 0 0-42.48 14.91c-43.36 18.28-82.13 44.31-115.23 77.38-34.27 34.23-60.93 74.53-79.23 119.78C46.67 706.42 37.8 752.25 37.98 799h4.22zm449.88-343.79c-22.47 9.47-46.01 15.09-70.13 16.79-8.18-.46-16.39-.62-24.64-.45-2.86.06-5.71.16-8.55.29-22.25-1.79-44.07-6.96-65.11-15.47-3.56-1.44-7.06-2.96-10.51-4.57a357.074 357.074 0 0 1 81.82-10.66c33.95-.49 67.45 3.83 100.04 12.81-.98.42-1.94.85-2.92 1.26zM337.67 421.7c-45.23-18.3-80.65-53.04-99.75-97.82-19.1-44.79-19.58-94.26-1.36-139.3s52.96-80.27 97.83-99.18c44.86-18.91 94.48-19.26 139.71-.96 45.23 18.3 80.65 53.04 99.75 97.82 19.1 44.79 19.58 94.26 1.36 139.3s-52.96 80.27-97.83 99.18c-44.86 18.91-94.48 19.25-139.71.96zm-87.01-13.45c-20.17-20.07-36.07-43.56-47.26-69.82-11.19-26.26-17.12-53.95-17.61-82.32-.51-29.37 4.87-58.18 15.97-85.62s27.27-51.89 48.05-72.65C269.89 77.79 293.4 62 319.7 50.92 346 39.83 373.76 34 402.21 33.59c29.45-.42 58.36 5.02 85.92 16.17 27.56 11.15 52.12 27.34 72.99 48.12 20.17 20.07 36.07 43.56 47.26 69.82 11.19 26.26 17.12 53.95 17.61 82.32.51 29.37-4.87 58.18-15.97 85.62s-27.27 51.89-48.05 72.65c-17.8 17.78-38.32 32.2-61.08 42.98a360.754 360.754 0 0 0-72.74-13.24c17.45-2.04 34.5-6.53 50.87-13.44 22.31-9.41 42.27-22.8 59.3-39.82 17.64-17.61 31.35-38.35 40.78-61.64 9.42-23.29 13.98-47.73 13.55-72.65-.41-24.07-5.44-47.57-14.94-69.85-9.5-22.28-22.99-42.21-40.1-59.24-17.72-17.63-38.55-31.37-61.94-40.83-23.38-9.46-47.91-14.07-72.91-13.72-24.14.35-47.7 5.29-70.01 14.7-22.31 9.41-42.27 22.8-59.3 39.82-17.64 17.61-31.35 38.35-40.78 61.64s-13.98 47.73-13.55 72.65c.41 24.07 5.44 47.57 14.94 69.85 9.5 22.28 22.99 42.21 40.1 59.24 17.72 17.63 38.55 31.37 61.94 40.83 14.35 5.81 29.14 9.78 44.2 11.91-24.76 1.34-49.16 5.18-73.02 11.5-20.98-10.51-39.97-24.15-56.62-40.73z" style="fill:url(#a)"/></svg>