<svg xmlns="http://www.w3.org/2000/svg" xml:space="preserve" viewBox="0 0 156.2 24.9"><path fill="#FFF" d="M153.8 11.7c-1.4 0-2.4-1.1-2.4-2.4s1.1-2.4 2.4-2.4 2.4 1.1 2.4 2.4c0 1.3-1.1 2.4-2.4 2.4zm0-4.7c-1.2 0-2.2 1-2.2 2.2s1 2.2 2.2 2.2 2.2-1 2.2-2.2-1-2.2-2.2-2.2zm.6 3.5-.7-1.1h-.4v1.1h-.3V7.9h.9c.4 0 .8.3.8.8 0 .4-.3.6-.6.7l.7 1.1h-.4zm-.6-2.3h-.5v1h.5c.3 0 .6-.2.6-.5s-.2-.5-.6-.5zm-35-1.3c-.1 0-.1 0-.9.1-.8 0-2.2.1-5.1.1h-3.6c-2.9 0-4.3 0-5.1-.1-.7 0-.8-.1-.8-.1-.3 0-.3.2-.3.9v2.6c0 .1 0 .5.3.5s.4-.1.9-1.2c.3-.7 1-1.8 4.8-1.8.4 0 .6.1.6.7v13.1c0 1.1 0 1.9-1.4 1.9-.6.1-1 .1-1 .5s.4.4.6.4c.5 0 2.8-.1 3.3-.1.9 0 2.4.1 3.3.1.2 0 .6 0 .6-.4s-.4-.5-1-.5c-1.4-.1-1.4-.8-1.4-2V8.8c0-.7.1-.9.9-.9 3.5.1 4.1 1.1 4.5 1.8.5 1 .6 1.2.9 1.2.3 0 .3-.3.3-.5V7.7c-.1-.6-.1-.8-.4-.8zM88.3 20c-.2 0-.3.1-.8 1.1-1.2 2.4-3 2.4-4.2 2.4-2.4 0-3-.3-3-2.3v-4.8c0-.8.2-.8 1.6-.8 2.3 0 3.1 0 3.7 2.2.1.5.3.7.5.7.3 0 .3-.4.3-.6 0-.2-.1-1.2-.1-1.4 0-.6.2-3.5.2-3.9 0-.3-.1-.4-.3-.4-.1 0-.3.1-.4.4-.5 1.5-.8 2.1-3.9 2.1-1.6 0-1.6-.2-1.6-1.1V9.5c0-1.4.1-1.6 1.5-1.6 4 0 4.7 1.1 5 1.8.5 1 .6 1.2.9 1.2.3 0 .3-.3.3-.5V7.7c0-.6 0-.9-.3-.9-.1 0-.1 0-.8.1-.8.1-2.3.1-5.2.1h-1.3c-2.4 0-3.6 0-4.2-.1-.6 0-.6-.1-.7-.1-.2 0-.6 0-.6.4s.4.5 1 .5c1.4.1 1.4.8 1.4 2v11.9c0 1.2 0 1.9-1.4 2-.6.1-1 .1-1 .5s.4.4.6.4c.2 0 .4 0 .9-.1.4 0 1.2-.1 2.3-.1h.3c.2 0 1.5 0 3.1.1 1.6 0 3.6.1 5 .1.8 0 1.1-.3 1.1-.8.1-1 .4-2.8.4-3.2 0-.2 0-.5-.3-.5zm46 0c-.2 0-.3.1-.8 1.1-1.2 2.4-3 2.4-4.2 2.4-2.4 0-3-.3-3-2.3v-4.8c0-.8.2-.8 1.6-.8 2.3 0 3.1 0 3.7 2.2.1.5.3.7.5.7.3 0 .3-.4.3-.6 0-.2-.1-1.2-.1-1.4 0-.6.2-3.5.2-3.9 0-.3-.1-.4-.3-.4-.1 0-.3.1-.4.4-.5 1.5-.8 2.1-3.9 2.1-1.6 0-1.6-.2-1.6-1.1V9.5c0-1.4.1-1.6 1.5-1.6 4 0 4.7 1.1 5 1.8.5 1 .6 1.2.9 1.2.3 0 .3-.3.3-.5V7.7c0-.6 0-.9-.3-.9-.1 0-.1 0-.8.1-.9.1-2.3.1-5.2.1h-1.4c-2.4 0-3.6 0-4.2-.1-.6 0-.6-.1-.7-.1-.2 0-.6 0-.6.4s.4.5 1 .5c1.4.1 1.4.8 1.4 2v11.9c0 1.2 0 1.9-1.4 2-.6.1-1 .1-1 .5s.4.4.6.4c.2 0 .4 0 .9-.1.4 0 1.1-.1 2.3-.1h.3c.2 0 1.5 0 3.1.1 1.6 0 3.6.1 5 .1.8 0 1.1-.3 1.1-.8.1-1 .4-2.8.4-3.2.1-.2 0-.5-.2-.5zm-37.1-6.3c-2.3-1-4-1.7-4-3.7 0-1.1.9-2.8 3.1-2.7 2.4 0 2.9 1.6 3.2 2.7.3.9.4 1.1.7 1.1.4 0 .4-.2.4-.9 0-2.5 0-2.8-.4-3-.4-.2-2.1-.7-3.8-.7-3.7 0-5.7 2.3-5.7 4.9 0 3 2.3 4.2 4.6 5.2 2.1 1 4 2 4 4.3S97 24 95.8 24c-2 0-4-1.7-4.6-4.2-.1-.3-.1-.5-.3-.5-.4 0-.4.4-.4.5 0 1 .1 2.3.1 2.6.1.7.2 1.3.5 1.5.5.4 1.9.9 4.2.9 3.8 0 6.2-2.7 6.2-5.9.3-3.1-2.7-4.6-4.3-5.2zM29.5 6.5c-5.5 0-9.7 4-9.7 9.1 0 5.5 4.6 9.2 9.6 9.2 4.8 0 9.6-3.9 9.6-9.5 0-4.9-4.2-8.8-9.5-8.8zm.1 17.6c-3.8 0-6.5-4.4-6.5-9 0-4.1 2.5-7.8 6-7.8 4.5 0 6.5 4.8 6.5 8.2 0 4.1-2 8.6-6 8.6zM18 0s-.1 0-1.2.1c-1.1 0-3.2.1-7.4.1h-.9C4.5.2 3 .2 1.9.1.9 0 .9 0 .8 0 .5 0 0 0 0 .6s.6.6 1.5.7c2 .1 2 1.2 2 2.9V21c0 1.3 0 2.3-1.7 2.4-.8.1-1.3.1-1.3.6s.5.5.7.5c.7 0 3.5-.1 4.1-.1 1.1 0 3 .1 4.2.1.3 0 .7 0 .7-.5s-.5-.6-1.2-.6c-1.7-.1-1.7-1-1.7-2.5v-6.2c0-1.2 0-1.6.7-1.8.4-.1 2.3-.1 3.5-.1 1 0 3.6 0 4.2 2.2.1.2.3 1.3.5 1.5.1.2.2.7.7.7.5 0 .5-.5.5-.8l-.2-1.9c-.1-.9-.1-1.6-.1-2 0-.6.1-3.4.1-4 0-.4-.1-.7-.5-.7s-.6.3-.7.7c-.5 2.1-1.1 3-4.4 3-.6 0-3 0-3.6-.1-.5-.1-.6-.1-.6-2.3V3.4c0-1.9.7-2 2.1-2 6.3 0 6.9.9 8.1 3.6.2.3.3.8.8.8s.5-.6.5-.8V.8c-.2-.6-.3-.8-.9-.8zm37.4 23.7c-.8-.1-1.2-.8-1.7-1.8L50.9 17c-.7-1.2-1-1.3-1.3-1.6 1-.2 3.9-.9 3.9-4.2 0-1-.4-4.4-5.4-4.4-.8 0-4.6.1-5.3.1-.3 0-1.7-.1-2-.1-.9 0-1 0-1 .4s.4.4 1 .5c1.2.1 1.2.8 1.2 2v11.9c0 1.2 0 1.9-1.4 2-.6 0-1 .1-1 .5s.4.4.6.4c.5 0 2.8-.1 3.3-.1.1 0 2.8.1 3.4.1.2 0 .6 0 .6-.4s-.4-.5-1-.5c-1.4-.1-1.4-.8-1.4-2v-5.1c0-.5.1-.7.5-.7 1.3 0 1.4.1 2 1.3l3.4 6.4c.3.6.4.8.9.8h3.7c.2 0 .5 0 .5-.3 0-.1-.1-.2-.7-.3zm-8.9-8.5c-1.4 0-1.4-.1-1.4-1V9.4c0-1.1 0-1.8 1.3-1.8 3.5 0 3.9 3 3.9 4-.1 3.6-2.8 3.6-3.8 3.6zm26.6 8.5c-.8-.1-1.2-.8-1.7-1.8L68.6 17c-.7-1.2-1-1.3-1.4-1.6 1-.2 3.9-.9 3.9-4.2 0-1-.4-4.4-5.4-4.4-.8 0-4.6.1-5.3.1-.3 0-1.7-.1-2-.1-.9 0-1 0-1 .4s.4.4 1 .5c1.4.1 1.4.8 1.4 2v11.9c0 1.2 0 1.9-1.4 2-.6 0-1 .1-1 .5s.4.4.6.4c.5 0 2.8-.1 3.3-.1.1 0 2.8.1 3.4.1.2 0 .6 0 .6-.4s-.4-.5-1-.5c-1.4-.1-1.4-.8-1.4-2v-5.1c0-.5.1-.7.5-.7 1.3 0 1.4.1 2 1.3l3.4 6.4c.3.6.4.8.9.8h3.7c.2 0 .5 0 .5-.3-.1-.1-.2-.2-.8-.3zm-9-8.5c-1.4 0-1.4-.1-1.4-1V9.4c0-1.1 0-1.8 1.3-1.8 3.5 0 3.9 3 3.9 4 0 3.6-2.8 3.6-3.8 3.6zm87.9 8.5c-.8-.1-1.2-.8-1.7-1.8l-2.7-4.8c-.6-1.2-1-1.3-1.4-1.6 1-.2 3.9-.9 3.9-4.2 0-1-.4-4.4-5.4-4.4-.9 0-4.6.1-5.4.1-.3 0-1.7-.1-2-.1-.9 0-1 0-1 .4s.4.4 1 .5c1.4.1 1.4.8 1.4 2v11.9c0 1.2 0 1.9-1.4 2-.6 0-1 .1-1 .5s.4.4.6.4c.5 0 2.8-.1 3.3-.1.1 0 2.9.1 3.4.1.2 0 .6 0 .6-.4s-.4-.5-1-.5c-1.4-.1-1.4-.8-1.4-2v-5.1c0-.5.1-.7.5-.7 1.3 0 1.4.1 2 1.3l3.4 6.4c.3.6.4.8.9.8h3.7c.2 0 .5 0 .5-.3-.1-.2-.2-.3-.8-.4zm-9-8.5c-1.4 0-1.4-.1-1.4-1V9.4c0-1.1 0-1.8 1.3-1.8 3.5 0 3.9 3 3.9 4 0 3.6-2.8 3.6-3.8 3.6z"/></svg>